<mxfile host="65bd71144e">
    <diagram id="C7IOROe54FGDKYHubnAY" name="Page-1">
        <mxGraphModel dx="1375" dy="1150" grid="0" gridSize="10" guides="1" tooltips="1" connect="1" arrows="1" fold="1" page="0" pageScale="1" pageWidth="850" pageHeight="1100" background="#ffffff" math="0" shadow="0">
            <root>
                <mxCell id="0"/>
                <mxCell id="1" parent="0"/>
                <mxCell id="3" value="" style="endArrow=none;dashed=1;html=1;strokeWidth=1;strokeColor=#000000;" edge="1" parent="1">
                    <mxGeometry width="50" height="50" relative="1" as="geometry">
                        <mxPoint x="98" y="669" as="sourcePoint"/>
                        <mxPoint x="98" y="-1" as="targetPoint"/>
                    </mxGeometry>
                </mxCell>
                <mxCell id="11" value="frontend" style="text;html=1;strokeColor=none;fillColor=none;align=center;verticalAlign=middle;whiteSpace=wrap;rounded=0;fontColor=#000000;" vertex="1" parent="1">
                    <mxGeometry x="18" y="616" width="60" height="30" as="geometry"/>
                </mxCell>
                <mxCell id="12" value="backend" style="text;html=1;strokeColor=none;fillColor=none;align=center;verticalAlign=middle;whiteSpace=wrap;rounded=0;fontColor=#000000;" vertex="1" parent="1">
                    <mxGeometry x="115" y="616" width="60" height="30" as="geometry"/>
                </mxCell>
                <mxCell id="13" value="Postgresql" style="shape=cylinder3;whiteSpace=wrap;html=1;boundedLbl=1;backgroundOutline=1;size=15;strokeColor=#000000;fontColor=#000000;fillColor=#FF6666;" vertex="1" parent="1">
                    <mxGeometry x="628" y="379" width="72" height="80" as="geometry"/>
                </mxCell>
                <mxCell id="14" value="S3" style="shape=cylinder3;whiteSpace=wrap;html=1;boundedLbl=1;backgroundOutline=1;size=15;strokeColor=#000000;fontColor=#000000;fillColor=#FF6666;" vertex="1" parent="1">
                    <mxGeometry x="628" y="233.5" width="72" height="80" as="geometry"/>
                </mxCell>
                <mxCell id="23" style="edgeStyle=none;html=1;strokeColor=#000000;strokeWidth=1;fontColor=#000000;" edge="1" parent="1" source="18" target="20">
                    <mxGeometry relative="1" as="geometry">
                        <mxPoint x="22" y="398" as="targetPoint"/>
                    </mxGeometry>
                </mxCell>
                <mxCell id="18" value="" style="rounded=0;whiteSpace=wrap;html=1;strokeColor=#000000;fontColor=#000000;fillColor=none;" vertex="1" parent="1">
                    <mxGeometry x="-100" y="294" width="85" height="69" as="geometry"/>
                </mxCell>
                <mxCell id="19" value="Client" style="text;html=1;strokeColor=none;fillColor=none;align=center;verticalAlign=middle;whiteSpace=wrap;rounded=0;fontColor=#000000;" vertex="1" parent="1">
                    <mxGeometry x="-87.5" y="313.5" width="60" height="30" as="geometry"/>
                </mxCell>
                <mxCell id="31" style="edgeStyle=orthogonalEdgeStyle;html=1;strokeColor=#000000;strokeWidth=1;fontColor=#000000;" edge="1" parent="1" source="20" target="28">
                    <mxGeometry relative="1" as="geometry"/>
                </mxCell>
                <mxCell id="20" value="" style="rounded=0;whiteSpace=wrap;html=1;strokeColor=#000000;fontColor=#000000;fillColor=#99FF99;" vertex="1" parent="1">
                    <mxGeometry x="55" y="294" width="85" height="69" as="geometry"/>
                </mxCell>
                <mxCell id="21" value="nginx" style="text;html=1;strokeColor=none;fillColor=none;align=center;verticalAlign=middle;whiteSpace=wrap;rounded=0;fontColor=#000000;" vertex="1" parent="1">
                    <mxGeometry x="67.5" y="313.5" width="60" height="30" as="geometry"/>
                </mxCell>
                <mxCell id="27" style="html=1;strokeColor=#000000;strokeWidth=1;fontColor=#000000;" edge="1" parent="1" source="24" target="26">
                    <mxGeometry relative="1" as="geometry"/>
                </mxCell>
                <mxCell id="37" style="html=1;strokeColor=#000000;strokeWidth=1;fontColor=#000000;" edge="1" parent="1" source="24" target="13">
                    <mxGeometry relative="1" as="geometry"/>
                </mxCell>
                <mxCell id="44" style="edgeStyle=none;html=1;strokeColor=#000000;strokeWidth=1;fontColor=#000000;" edge="1" parent="1" source="24" target="14">
                    <mxGeometry relative="1" as="geometry"/>
                </mxCell>
                <mxCell id="24" value="" style="rounded=0;whiteSpace=wrap;html=1;strokeColor=#000000;fontColor=#000000;fillColor=#6666FF;" vertex="1" parent="1">
                    <mxGeometry x="422" y="206" width="85" height="69" as="geometry"/>
                </mxCell>
                <mxCell id="25" value="Auth&lt;br&gt;Service" style="text;html=1;strokeColor=none;fillColor=none;align=center;verticalAlign=middle;whiteSpace=wrap;rounded=0;fontColor=#000000;" vertex="1" parent="1">
                    <mxGeometry x="434.5" y="225.5" width="60" height="30" as="geometry"/>
                </mxCell>
                <mxCell id="26" value="Redis" style="shape=cylinder3;whiteSpace=wrap;html=1;boundedLbl=1;backgroundOutline=1;size=15;strokeColor=#000000;fontColor=#000000;fillColor=#FF6666;" vertex="1" parent="1">
                    <mxGeometry x="315" y="59" width="72" height="80" as="geometry"/>
                </mxCell>
                <mxCell id="38" style="html=1;strokeColor=#000000;strokeWidth=1;fontColor=#000000;" edge="1" parent="1" source="28" target="24">
                    <mxGeometry relative="1" as="geometry"/>
                </mxCell>
                <mxCell id="42" style="edgeStyle=none;html=1;strokeColor=#000000;strokeWidth=1;fontColor=#000000;" edge="1" parent="1" source="28" target="33">
                    <mxGeometry relative="1" as="geometry"/>
                </mxCell>
                <mxCell id="48" style="edgeStyle=none;html=1;strokeColor=#000000;strokeWidth=1;fontColor=#000000;" edge="1" parent="1" source="28" target="46">
                    <mxGeometry relative="1" as="geometry"/>
                </mxCell>
                <mxCell id="49" style="edgeStyle=none;html=1;strokeColor=#000000;strokeWidth=1;fontColor=#000000;" edge="1" parent="1" source="28" target="26">
                    <mxGeometry relative="1" as="geometry"/>
                </mxCell>
                <mxCell id="57" value="Sessions" style="edgeLabel;html=1;align=center;verticalAlign=middle;resizable=0;points=[];fontColor=#000000;labelBackgroundColor=none;" vertex="1" connectable="0" parent="49">
                    <mxGeometry x="-0.1341" y="-1" relative="1" as="geometry">
                        <mxPoint y="-1" as="offset"/>
                    </mxGeometry>
                </mxCell>
                <mxCell id="28" value="" style="rounded=0;whiteSpace=wrap;html=1;strokeColor=#000000;fontColor=#000000;fillColor=#99FF99;" vertex="1" parent="1">
                    <mxGeometry x="196" y="294" width="85" height="69" as="geometry"/>
                </mxCell>
                <mxCell id="29" value="API-Gateway" style="text;html=1;strokeColor=none;fillColor=none;align=center;verticalAlign=middle;whiteSpace=wrap;rounded=0;fontColor=#000000;" vertex="1" parent="1">
                    <mxGeometry x="208.5" y="313.5" width="60" height="30" as="geometry"/>
                </mxCell>
                <mxCell id="36" style="html=1;strokeColor=#000000;strokeWidth=1;fontColor=#000000;" edge="1" parent="1" source="33" target="13">
                    <mxGeometry relative="1" as="geometry"/>
                </mxCell>
                <mxCell id="43" style="edgeStyle=none;html=1;strokeColor=#000000;strokeWidth=1;fontColor=#000000;" edge="1" parent="1" source="33" target="14">
                    <mxGeometry relative="1" as="geometry"/>
                </mxCell>
                <mxCell id="33" value="" style="rounded=0;whiteSpace=wrap;html=1;strokeColor=#000000;fontColor=#000000;fillColor=#6666FF;" vertex="1" parent="1">
                    <mxGeometry x="422" y="401" width="85" height="69" as="geometry"/>
                </mxCell>
                <mxCell id="34" value="App&lt;br&gt;Service" style="text;html=1;strokeColor=none;fillColor=none;align=center;verticalAlign=middle;whiteSpace=wrap;rounded=0;fontColor=#000000;" vertex="1" parent="1">
                    <mxGeometry x="434.5" y="420.5" width="60" height="30" as="geometry"/>
                </mxCell>
                <mxCell id="53" style="edgeStyle=none;html=1;strokeColor=#000000;strokeWidth=1;fontColor=#000000;" edge="1" parent="1" source="46" target="51">
                    <mxGeometry relative="1" as="geometry"/>
                </mxCell>
                <mxCell id="46" value="" style="rounded=0;whiteSpace=wrap;html=1;strokeColor=#000000;fontColor=#000000;fillColor=#FFFF99;" vertex="1" parent="1">
                    <mxGeometry x="422" y="547" width="85" height="69" as="geometry"/>
                </mxCell>
                <mxCell id="47" value="Kafka" style="text;html=1;strokeColor=none;fillColor=none;align=center;verticalAlign=middle;whiteSpace=wrap;rounded=0;fontColor=#000000;" vertex="1" parent="1">
                    <mxGeometry x="434.5" y="566.5" width="60" height="30" as="geometry"/>
                </mxCell>
                <mxCell id="51" value="" style="rounded=0;whiteSpace=wrap;html=1;strokeColor=#000000;fontColor=#000000;fillColor=#ff6666;" vertex="1" parent="1">
                    <mxGeometry x="621.5" y="547" width="85" height="69" as="geometry"/>
                </mxCell>
                <mxCell id="52" value="ClickHouse" style="text;html=1;strokeColor=none;fillColor=none;align=center;verticalAlign=middle;whiteSpace=wrap;rounded=0;fontColor=#000000;" vertex="1" parent="1">
                    <mxGeometry x="634" y="566.5" width="60" height="30" as="geometry"/>
                </mxCell>
            </root>
        </mxGraphModel>
    </diagram>
</mxfile>
